<svg xmlns="http://www.w3.org/2000/svg" viewBox="0 0 874 361.57"><g id="Livello_2" data-name="Livello 2"><g id="Livello_1-2" data-name="Livello 1"><g id="logo_3"><path d="M161.36,209.55q-7.35,1.23-6.13,8.29a22.82,22.82,0,0,1,.92,4.44,44.46,44.46,0,0,1,.31,5.07q.6,7.05,2,14.57t2.91,10.27c.41,1,1,2.36,1.69,4a31.05,31.05,0,0,1,1.69,4.91,93,93,0,0,0,6.13,13q4.31,7.81,8.9,15t7.67,10a6.89,6.89,0,0,1,1.07,1.38,2.63,2.63,0,0,1,.46,1.07,1.87,1.87,0,0,0,.46.92,10.93,10.93,0,0,0,1.08,1.23c.41.41,1,1.08,1.84,2s1.63,1.89,2.45,2.91a49.92,49.92,0,0,0,3.68,4.76q1.53,1.68,3.69,3.83c1.42,1.43,3.68,3.47,6.74,6.13q8.59,8.29,11.35,8.29a5.58,5.58,0,0,1,2,.3,2.45,2.45,0,0,1,1.23,1.23,19.75,19.75,0,0,1,1.07,3.38c.41,1.42.46,2.4.15,2.91s-1.38.87-3.22,1.07q-4,1.23-4.45,2.92c-.3,1.12.77,1.69,3.22,1.69a25.51,25.51,0,0,1,7.83,1.22q3.82,1.23,5.06,3.07,2.44,2.76-.61,3.53t-15-.15q-9.19-.63-13.49-1.39a34.13,34.13,0,0,1-8.29-2.6q-6.14-2.76-15.49-10.13a98.08,98.08,0,0,1-15.18-14.42q-13.81-15.63-20.1-24.23a206.27,206.27,0,0,1-12.73-19.94q-5.83-10.12-10-18.87t-5.06-13.34a14,14,0,0,0-1.23-2.46,2.39,2.39,0,0,0-1.22-1.07c-.42-.1-.62.36-.62,1.38a2.53,2.53,0,0,1-.46,1.07,4.45,4.45,0,0,1-1.38,1.39q-1.23,1.23-1.23,1.68c0,.31.31.67.92,1.08.62.2.92.51.92.92a2.46,2.46,0,0,1-.92,1.53,21.28,21.28,0,0,0-.92,2.76,16.66,16.66,0,0,0-.61,4.6q-.91,16-4,16.57c-1.64.21-1.64.41,0,.61.41-.2.72,0,.92.46a10.21,10.21,0,0,1,.46,2.61c.1,1.23.16,3.07.16,5.52v9.82q-.31,6.75-.46,10.58a53.31,53.31,0,0,1-.46,5.68,7.43,7.43,0,0,1-.92,2.76,5.47,5.47,0,0,1-1.54,1.53,3.62,3.62,0,0,0-2.15,2.3,16,16,0,0,0,0,4.45,19.21,19.21,0,0,1,0,4.91,22.39,22.39,0,0,1-1.53,5.52c-.82,1.64-1.53,3.17-2.15,4.6a9.39,9.39,0,0,0-.92,3.07,2.32,2.32,0,0,1-1.53,1.38,9.43,9.43,0,0,1-4,.16c-1.43,0-3,0-4.75.15a40.69,40.69,0,0,0-4.45.46,8.51,8.51,0,0,1-3.68.31c-.62-.21-1-.92-1.23-2.15-.41-1.84-2-2.87-4.6-3.07a7.25,7.25,0,0,1-2.76-.92,4.71,4.71,0,0,1-1.54-2.61,44.5,44.5,0,0,1-1.22-6.59c-.42-3.07-.82-7.27-1.23-12.58a253,253,0,0,1-.46-32.82A283.8,283.8,0,0,1,69,251.58a52.7,52.7,0,0,0,.92-5.83c.2-2,.4-3.78.61-5.21s.51-3.43.92-6,.92-5.26,1.53-8.12q.61-4,1.69-8.9c.72-3.27,1.28-6.14,1.69-8.59s.92-5.16,1.53-8.13,1.23-5.47,1.84-7.52q.61-3.06,1.54-6.59a47.41,47.41,0,0,0,1.22-6c.41-1.43,1-3.69,1.69-6.75s1.48-6.14,2.3-9.21c.82-3.27,1.58-6.18,2.3-8.74s1.18-4.34,1.38-5.37.41-1.94.62-2.76a9.08,9.08,0,0,1,.61-1.84c.2-.61.61-1.84,1.23-3.68s1.22-4,1.84-6.44q6.44-21.48,12.27-38.35,1.21-4.6,2.45-8.74a59.09,59.09,0,0,0,1.54-6,16.22,16.22,0,0,1,.76-4.45c.51-1.74,1-3.32,1.38-4.76q4.9-12.26-6.44-2.76c-2,1.64-4.09,3.43-6.13,5.37s-3.68,3.63-4.91,5.06-2.87,3.22-4.91,5.37-4.09,4.14-6.14,6c-1.84,1.84-3.48,3.53-4.9,5.06s-2.15,2.51-2.15,2.92a5,5,0,0,1-1.07,2.15,16.17,16.17,0,0,1-2.92,3.06c-1,1.23-1.95,2.3-2.76,3.22s-1.23,1.49-1.23,1.69a1.24,1.24,0,0,1-.46.77l-1.07,1.07a4.71,4.71,0,0,0-1.53,1.84,11.19,11.19,0,0,0-.92,2.46,11.32,11.32,0,0,1-1.08,2.61,7.37,7.37,0,0,1-2,2.3,9.33,9.33,0,0,0-1.54,2,4.18,4.18,0,0,0-.61,1.38,3.9,3.9,0,0,1-.61,1.69,23.06,23.06,0,0,1-1.54,2.3,11.46,11.46,0,0,0-1.84,2.3,4.18,4.18,0,0,0-.61,1.38,10.09,10.09,0,0,1-.92,2.76,35.05,35.05,0,0,1-2.46,4.6,44.91,44.91,0,0,0-2.45,5.06,11.72,11.72,0,0,0-.92,2.92,17,17,0,0,1-.92,3.83c-.61,1.95-1.33,4-2.15,6.29A53.67,53.67,0,0,0,43,171.21q-.62,6.75.61,9.2a.69.69,0,0,1,.16.77,1.42,1.42,0,0,1-.77.76,1,1,0,0,1-1.07,0,2.55,2.55,0,0,1-.77-1.53A3.36,3.36,0,0,0,40,178.88a2.37,2.37,0,0,0-1.38-.62c-.82,0-1.23.57-1.23,1.69a11.11,11.11,0,0,0,.61,3.53,4.92,4.92,0,0,0,2.15,2.76,2.46,2.46,0,0,1,.92,3.37A6.67,6.67,0,0,1,37.43,193a15.34,15.34,0,0,1-4.76.61,82,82,0,0,1-8.43-.61c-6.55-.62-11-1.48-13.35-2.61a9.93,9.93,0,0,1-5.06-5.68,28.22,28.22,0,0,1-2.15-3.83A23.16,23.16,0,0,0,2.15,178a10.76,10.76,0,0,1-1.07-3.83q-.47-2.91-.77-6.29a32.2,32.2,0,0,1,0-8.89q.62-4,2.15-10.13a222.3,222.3,0,0,1,10.12-26.38q6.14-13.5,11-19.63c.82-1,1.48-1.89,2-2.61a3.8,3.8,0,0,0,.76-1.38,23.48,23.48,0,0,1,2.46-3.68q2.44-3.37,6.29-8.13T43,77.33q4.29-4.89,11.5-12T68.26,52.49q6.58-5.84,9-7.06a13.52,13.52,0,0,0,2.45-1.23c.62-.41.92-.71.92-.92,0-.41,1-1.33,2.92-2.76s4.34-3.11,7.21-5.06,5.62-3.78,8.28-5.52a68.76,68.76,0,0,1,6.44-3.84A27.67,27.67,0,0,0,110,23.65l4.14-2.76c1.23-.82,2.35-1.54,3.38-2.15a5.35,5.35,0,0,1,2.14-.92,7,7,0,0,0,2.15-.61,12.36,12.36,0,0,0,3.07-1.84q3.67-1.84,10.74-4.76T150,5.24a117.33,117.33,0,0,1,11.66-3.37q29.15-4.9,46,3.07a40.27,40.27,0,0,0,5.83,2.3,32.26,32.26,0,0,0,5.82,1.38,51.56,51.56,0,0,1,12.58,3.53,83.21,83.21,0,0,1,12,5.67c1.84,1.64,4,3.48,6.44,5.52s4.6,3.94,6.44,5.68,2.76,2.91,2.76,3.53c0,.2.31.66.92,1.38a13.71,13.71,0,0,0,2.15,2,33.07,33.07,0,0,1,3.53,4.45,53.53,53.53,0,0,1,3.53,6,12,12,0,0,1,1.53,4.29A3.66,3.66,0,0,0,271.5,52a3.07,3.07,0,0,0,.61,1.07,20.2,20.2,0,0,1,2.61,5.52,50.56,50.56,0,0,1,2,7.36c.2,1.23.41,2.87.61,4.91a22.75,22.75,0,0,0,.31,3.68,27.53,27.53,0,0,1,.31,3.68c0,1-.11,1.54-.31,1.54A11.89,11.89,0,0,0,277,82.7a40.3,40.3,0,0,0-.31,5.37c-.21,2.05-.46,3.89-.77,5.52a6.57,6.57,0,0,1-1.07,3.07,10.79,10.79,0,0,0-.61,1.53A5.69,5.69,0,0,0,274,100q0,1.55-2.76,7.37c-1.84,3.88-3.84,7.62-6,11.19a79.17,79.17,0,0,1-4.45,6.91,4.32,4.32,0,0,0-1.38,1.38,2.71,2.71,0,0,0-.46,1.38q0,1.53-2.15,4.29a46.8,46.8,0,0,1-5.52,5.83c-.82.82-1.49,1.54-2,2.15a2.86,2.86,0,0,0-.76,1.23q0,.62-4,4.44t-9.05,8.44c-3.37,3.07-6.55,5.78-9.51,8.13s-4.65,3.53-5.06,3.53c-.21,0-.57.26-1.08.77a4.34,4.34,0,0,0-1.07,2.3,19.37,19.37,0,0,1-1.23,2.14c-.41.62-.82.92-1.22.92a10.84,10.84,0,0,0-2.46,1.54q-2.15,1.53-4.91,3.68a41.3,41.3,0,0,1-5.52,4.6c-2,1.43-3.78,2.56-5.21,3.37a34.11,34.11,0,0,0-4.6,3.23q-2.46,2-4.3,3.52a26.6,26.6,0,0,1-3.37,2.92,4.91,4.91,0,0,1-2.15,1.07,22.84,22.84,0,0,0-4.14,1.84,27.75,27.75,0,0,0-5.37,3.68Q166.57,208.33,161.36,209.55Zm-52.76-173c0-.2.81-.81,2.45-1.84a61.08,61.08,0,0,1,6.45-3.37l4.9-2.46q5.53-2.45,8.29-4,4-1.85,10.27-4.3c4.19-1.63,8-3.07,11.51-4.29q2.76-.61,10.89-2.15t16.72-2.76a104.46,104.46,0,0,1,11-1.23,1.37,1.37,0,0,0,.61-.15c.21-.1.31-.36.31-.77,0-.2-.56-.46-1.69-.77a30.37,30.37,0,0,0-4.44-.76c-1.64-.2-3.48-.36-5.53-.46s-3.58-.16-4.6-.16A100.84,100.84,0,0,0,159.83,10a173.27,173.27,0,0,0-19,5.67,94.87,94.87,0,0,0-10.12,4.45Q124.85,23,120,25.8a37.38,37.38,0,0,0-5.83,3.68,25.2,25.2,0,0,1-2.45,1.68c-1.44.92-3.07,1.9-4.91,2.92a63.54,63.54,0,0,0-6.75,4q-3.67,2.46-6.44,4.6-6.15,4.9-13.19,11t-12,10.74q-4.9,4.6-4.91,5.21c.62.42,1.69.16,3.23-.76a41.79,41.79,0,0,0,5.06-3.68,24,24,0,0,0,4.6-5.07A39.63,39.63,0,0,1,79.92,56c1.12-1.12,1.89-1.68,2.3-1.68a2.37,2.37,0,0,0,1.38-.62,21.07,21.07,0,0,0,1.69-1.53A2.72,2.72,0,0,1,87,50.64a5.71,5.71,0,0,1,2.61,0q7.36,1.23,7.36-3.06A3.57,3.57,0,0,1,99.4,43.9a50.69,50.69,0,0,0,7.21-3.38A25.61,25.61,0,0,0,112,36.84q2.46-2.15-.92-.31C109.41,37.35,108.6,37.35,108.6,36.53ZM77.92,278a2,2,0,0,0,1.08-.3c.3-.21.46-.41.46-.62s-.16-.4-.46-.61a2,2,0,0,0-1.08-.31,2.56,2.56,0,0,0-1.38.31c-.3.21-.46.41-.46.61s.16.41.46.62A2.57,2.57,0,0,0,77.92,278ZM77,296.06c1,1,1.54.62,1.54-1.22,0-2-.52-2.46-1.54-1.23a1.66,1.66,0,0,0-.61,1.07A2.9,2.9,0,0,0,77,296.06Zm3.68-33.13a2.41,2.41,0,0,0,1.08-2.3,1.47,1.47,0,0,0-1.69-1.38c-1.23,0-1.64.61-1.23,1.84a6.15,6.15,0,0,1,.46,1.23,4.51,4.51,0,0,1,.16.92A2.66,2.66,0,0,0,80.68,262.93Zm1.23-6.13c.82-.62.82-1.23,0-1.85a2.23,2.23,0,0,0-1.07-.46,2.12,2.12,0,0,0-1.38.16c-.82.61-.92,1.22-.31,1.84a5.59,5.59,0,0,0,1.38.46A2.13,2.13,0,0,0,81.91,256.8ZM83.14,251a9.55,9.55,0,0,0,.92-4.3,6.21,6.21,0,0,0-1.23-4,1.42,1.42,0,0,0-.77-.76c-.3-.1-.46,0-.46.15a34.31,34.31,0,0,1-1.53,7.06c-.41.82-.41,1.43,0,1.84a2.64,2.64,0,0,0,1.38.76A1.94,1.94,0,0,0,83.14,251Zm-1.23-11.66q3.38,3.67,3.38-3.07c0-2.45-.42-3.57-1.23-3.37a1.39,1.39,0,0,0-.77.76.71.71,0,0,0,.15.77c.21.21.16.51-.15.92a13.05,13.05,0,0,1-1.07,1.23,2.31,2.31,0,0,0-1.08,1.23C81,238.19,81.3,238.7,81.91,239.31ZM86.51,228a5.42,5.42,0,0,0,.92-2.76,2,2,0,0,0-.92-1.84,1.14,1.14,0,0,0-1.38.3,4,4,0,0,0-.61,1.84,4.82,4.82,0,0,0,.15,2.15,3.66,3.66,0,0,0,.92,1.08C85.79,228.83,86.1,228.57,86.51,228Zm2.15-15,.92-.92a.5.5,0,0,0-.31-.46,1.39,1.39,0,0,0-.61-.16,1.26,1.26,0,0,0-.92.31,1.23,1.23,0,0,0-.31.92C87.43,213.23,87.84,213.34,88.66,212.93Zm.61-4.91a11.56,11.56,0,0,0,2-4,64.29,64.29,0,0,0,1.84-6.29,11.19,11.19,0,0,0,.46-4.45,10.55,10.55,0,0,1-.46-2,11.52,11.52,0,0,1-.16-1.38c0-.82-.15-1.18-.46-1.07a2.63,2.63,0,0,0-1.07,1.07,6.66,6.66,0,0,0-.92,2.15,5.71,5.71,0,0,0-.15,2.3,1.65,1.65,0,0,0,.76,1.38q1.23,1.23-.61,3.07a3.88,3.88,0,0,0-1.38,2.3,19,19,0,0,0-.61,3.52,11.26,11.26,0,0,0,0,2.76C88.61,208,88.86,208.23,89.27,208Zm8.9-31.6a7.5,7.5,0,0,0,.92-2.45c0-.41-.41-.72-1.23-.92a6,6,0,0,0-1.84.3,3,3,0,0,0-1.53,1.23,17.6,17.6,0,0,0-1.08,1.84,3.89,3.89,0,0,0-.46,1.23c0,1.23.62,1.69,1.84,1.38A6.17,6.17,0,0,0,98.17,176.42Zm2.76-10.12c.41-1.64.71-2.76.92-3.38s.15-1-.15-1.22a4.12,4.12,0,0,0-2-.31,3,3,0,0,0-1.84.46,3.81,3.81,0,0,0-1.07,1.84,20.91,20.91,0,0,0-.77,4.14,8.13,8.13,0,0,0,0,3.22,1.19,1.19,0,0,0,1.23.77,2.7,2.7,0,0,0,1.23-.31,1,1,0,0,0,.61-.92c.2-.4.46-1,.77-1.84A24.62,24.62,0,0,1,100.93,166.3Zm5.83-25.77c1.43-2,1.43-3.07,0-3.07-.41,0-.87.31-1.38.92a8.1,8.1,0,0,0-1.23,2,2.69,2.69,0,0,0-.15,2c.2.21.15.57-.16,1.07a6.36,6.36,0,0,1-1.07,1.38,4.07,4.07,0,0,0-1.38,2.46,9.84,9.84,0,0,0-.31,3.37c.1,1,.36,1.54.77,1.54.61,0,1.28-.46,2-1.38a11.19,11.19,0,0,0,1.69-3.07,8.75,8.75,0,0,0,.62-2.92,15.33,15.33,0,0,1,.15-2.3A10.74,10.74,0,0,1,106.76,140.53ZM104,285.32a1.54,1.54,0,0,0,.77-.3,1,1,0,0,0,.46-.92,1.39,1.39,0,0,0-.16-.61.49.49,0,0,0-.46-.31,10.5,10.5,0,0,0-1.23.92,1.11,1.11,0,0,0-.15.92C103.33,285.22,103.59,285.32,104,285.32Zm4.91-158.6c.4.21.92.06,1.53-.46a4.58,4.58,0,0,0,1.38-2.14,8.17,8.17,0,0,0,.46-2.61,1.77,1.77,0,0,0-.31-1.23,1.26,1.26,0,0,0-.92-.3,3.27,3.27,0,0,0-1.68,1.84,8.43,8.43,0,0,0-.92,2.91A2.27,2.27,0,0,0,108.91,126.72Zm20.55-73a3.4,3.4,0,0,0-2.61,2.61q-.76,2.3-.46,7.82v.92a6.48,6.48,0,0,0,.62,3.22c.4.72,1.38,1.28,2.91,1.69s4.14.92,7.82,1.54a9.19,9.19,0,0,1,2.15.3c1.63.21,3.17.46,4.6.77s2.56.56,3.38.77a3.8,3.8,0,0,0,2.45-.16,3.75,3.75,0,0,0,1.53-2.3c1.85-3.47,3.58-3.07,5.22,1.23a17.57,17.57,0,0,1,1.38,7.51,32.06,32.06,0,0,1-2.61,10A42.86,42.86,0,0,0,154,95.13q-.62,2.46-.3,2.76c.2.2.25.61.15,1.22a2.79,2.79,0,0,1-.77,1.54,6.71,6.71,0,0,0-.92,2.45c-.2,1-.41,2.05-.61,3.07s-.46,2.1-.77,3.22a16.83,16.83,0,0,1-1.07,2.92,38,38,0,0,0-1.84,5.67q-1.23,4.45-2.76,9.66-1.55,5.54-2.92,10.13a31.53,31.53,0,0,1-2.3,6.13c-.41,1-.92,2.46-1.53,4.3s-1.13,3.58-1.54,5.21q-.62,2.76-1.38,5.53a23.61,23.61,0,0,1-1.38,4,49.66,49.66,0,0,0-1.53,4.91c-.62,2.25-1.23,4.71-1.84,7.36q-.62,3.69-1.23,6.75c-.41,2.05-.72,3.38-.92,4-.61,1.64-.41,2.46.61,2.46q2.46,0,15.65-9.51t27.92-21.33a298.38,298.38,0,0,0,23.62-20.7q28.83-29.14,36.5-51.85,5.52-18.09,2.15-29.14c-.61-1.84-1.28-3.58-2-5.22a17.94,17.94,0,0,0-2.31-4q-.91-1.23-1.68-2.46a4,4,0,0,1-.77-1.84,12,12,0,0,0-1.84-2.61,68.11,68.11,0,0,0-4.75-5.21c-2-1.94-3.84-3.84-5.68-5.68Q211.67,25.19,201.7,25a71.25,71.25,0,0,0-21.93,3.53,149.48,149.48,0,0,0-16.41,6,105.85,105.85,0,0,0-13,6.29c-2,1.43-4.29,2.86-6.75,4.29s-4.65,2.61-6.59,3.53A14.26,14.26,0,0,1,133.45,50a1.48,1.48,0,0,0-1.08.46,1.52,1.52,0,0,0-.46,1.08,1.64,1.64,0,0,1-.76,1.22A5.47,5.47,0,0,1,129.46,53.71Zm16.26,139q8-5.52,16.1-11.35t11.2-8.59c1.23-1,3-2.4,5.22-4.14s4.49-3.42,6.75-5.06,4.14-3.12,5.67-4.45,2.3-2.1,2.3-2.3c0-.41.62-1.33,1.84-2.76a55,55,0,0,1,4.91-4.91,74.12,74.12,0,0,0,8-8q3.36-4,9.2-12A20.44,20.44,0,0,1,219.5,126a10.17,10.17,0,0,1,2-1.69c.82-.82,1.23-1.43,1.23-1.84s-.41-.51-1.23-.31a19.33,19.33,0,0,0-2.61,2,29,29,0,0,0-4.14,4.45q-8,8.9-15.18,16.1A129.2,129.2,0,0,1,188.36,155c-1.64,1.22-3.27,2.56-4.91,4s-3,2.66-4,3.68-2.6,2.4-4.75,4.14l-6.6,5.37c-2.45,1.84-4.6,3.48-6.44,4.9s-3.07,2.46-3.68,3.07c-.41.21-1.53,1-3.37,2.3s-4.1,2.92-6.75,4.76c-1,.82-2.15,1.74-3.38,2.76q-5.22,3.38-8.59,6t-3.37,2.92c0,.2-.26.41-.77.61s-1.07.41-1.69.61a2.69,2.69,0,0,0-2,.77,5.49,5.49,0,0,0-1.07,1.38c-.21.82.1,1.13.92.92a25.28,25.28,0,0,0,4.9-2.45c1.85-1,3.43-1.95,4.76-2.76s2.2-1.33,2.61-1.54a21.32,21.32,0,0,1,3.07-2.15A16.11,16.11,0,0,0,145.72,192.68Z"/><path d="M354.94,187.46l4.29,9.82q.61,6.14-.61,19.48t-4,28.07c-.21.82-.51,2.46-.92,4.91s-.87,4.81-1.38,7.06-.87,3.78-1.07,4.6a15.24,15.24,0,0,0-.92,3.37,17.91,17.91,0,0,0-.31,2.76c0,1.44-.61,2.15-1.84,2.15-.41,0-1,.57-1.84,1.69a19.25,19.25,0,0,0-2.15,3.83,9.77,9.77,0,0,0-.92,3.68A1.93,1.93,0,0,1,343,280a1,1,0,0,1-.92.46,5.69,5.69,0,0,0-.76,1.07,3.18,3.18,0,0,0-.46,1.69,3.93,3.93,0,0,1-2.46,3.68,7.61,7.61,0,0,0-2.3,1.84,9.54,9.54,0,0,0-1.69,2.76,27.49,27.49,0,0,1-4.6,6.29q-3.67,4.14-7.51,7.82c-2.56,2.46-4.25,3.68-5.07,3.68a15.9,15.9,0,0,0-2.45.77,33.86,33.86,0,0,0-4.91,2.3c-1.84.82-3.43,1.49-4.75,2a15.7,15.7,0,0,1-4.6.92q-2.61.15-7.83.15-18.71,0-31.9-6.14a41.36,41.36,0,0,1-7.36-5.83q-4.6-4.29-8.9-9.05a37.94,37.94,0,0,1-5.83-7.82q-9.82-18.09-2.15-48.16,2.14-8.58,5.07-17.64T247,205.56c.82-2.24,1.54-4.24,2.15-6a21.61,21.61,0,0,0,.92-2.91,19.13,19.13,0,0,1,1.08-2.92,42.67,42.67,0,0,1,2.91-5.67q1.53-3.37,2.61-6a19.25,19.25,0,0,0,1.07-2.92,4.66,4.66,0,0,1,.46-1.69,12.59,12.59,0,0,1,1.07-2c.41-.81,1.08-2,2-3.68s1.79-3.27,2.61-4.91l3.06-5.52q1.53-2.76,2.46-4.3t2.61-4.44c1.12-2,2.3-3.84,3.52-5.68a26.16,26.16,0,0,1,3.68-5.52q2.14-2.44,3.38-3.68l3.37-2.46,2.46,2.15a6.1,6.1,0,0,1,2.3,2.3,6.33,6.33,0,0,1,.15,3.22,4.57,4.57,0,0,0-.15,3.07,5.11,5.11,0,0,0,2.61,1.84,26.2,26.2,0,0,0,3.37,1.08,13.5,13.5,0,0,0,3.07.46,9.68,9.68,0,0,1,2.76.46,9,9,0,0,1,2.45,1.07,8.41,8.41,0,0,0,4.76,1.23,6,6,0,0,0,4.45-1.54c.61-.81.86-1.27.76-1.38s-.66,0-1.68.46c-1.64.41-2.26.11-1.84-.92A10.26,10.26,0,0,0,312,147c0-.61.46-.71,1.38-.31a16.47,16.47,0,0,1,3.53,2.46q2.44,2.15,2.61,3.68t-2.31,4.6q-.92,1.54-1.53,2.76a5.26,5.26,0,0,0-.61,1.54c0,.41.4.92,1.22,1.53a16.8,16.8,0,0,0,3.38,1.84,29,29,0,0,1,4.45,2.92,29.8,29.8,0,0,1,4.45,4.14,25,25,0,0,0,4.44,3.68,10.65,10.65,0,0,0,4.14,1.53q7.37,1.23,11.36,5.83a11.91,11.91,0,0,0,2.14,1.69,4.24,4.24,0,0,0,2.15.76.9.9,0,0,1,.61.31c.2.21.41.41.62.61C354.42,187,354.73,187.26,354.94,187.46ZM245.11,255a2,2,0,0,0,1.08-.3c.3-.2.46-.41.46-.62a.92.92,0,0,0-.31-.61,1.28,1.28,0,0,0-.92-.31c-.21,0-.41-.15-.61-.46a1.82,1.82,0,0,1-.31-1.07,1.28,1.28,0,0,0-.31-.92,1.26,1.26,0,0,0-.92-.31,5.13,5.13,0,0,0-.76,1.38,8.53,8.53,0,0,0-.62,2.46,10,10,0,0,0,0,2.45c.1.72.36,1.08.77,1.08a.9.9,0,0,0,.61-.31,1.26,1.26,0,0,0,.31-.92,1.48,1.48,0,0,1,.46-1.08A1.49,1.49,0,0,1,245.11,255Zm-1.53-6.74c.61,0,1.27-.56,2-1.69a15.67,15.67,0,0,0,1.69-3.53,9.71,9.71,0,0,0,.61-2.76,11.48,11.48,0,0,1-.46-2.3,24.21,24.21,0,0,1-.15-2.61,6.58,6.58,0,0,0-.15-1.53c-.11-.41-.26-.51-.46-.31-.42.21-.82,1.07-1.23,2.61s-.77,3.22-1.07,5.06-.57,3.48-.77,4.91S243.37,248.21,243.58,248.21Zm22.09-61.67a29.14,29.14,0,0,0,3.22-6.59c.51-1.74.15-2.4-1.08-2q-.92.63-2.91,4.45a53.65,53.65,0,0,0-3.53,8.75,14.77,14.77,0,0,1-1.23,3.83c-.61,1.33-1.12,2.51-1.53,3.53a15.15,15.15,0,0,0-1.38,2.91,7.19,7.19,0,0,0-.46,2,8.12,8.12,0,0,1-.31,1.84,11.44,11.44,0,0,1-.92,2.45A84.2,84.2,0,0,0,250,220.9a21.11,21.11,0,0,1-.92,3.22c-.41,1.13-.72,1.9-.92,2.31-.21.61-.41,1.27-.61,2a7.11,7.11,0,0,0-.31,2c0,1.44.71.72,2.15-2.14a31.65,31.65,0,0,1,1.84-3.69c.61-1,1-1.73,1.23-2.14a2.76,2.76,0,0,0,.76-1.23,2,2,0,0,1,.46-.92c.62-3.48,1.84-5.62,3.68-6.44a5.43,5.43,0,0,0,1.84-1.38c.41-.51.57-.92.46-1.23s-.56-.35-1.38-.15a2.78,2.78,0,0,1-1.22.3.54.54,0,0,1-.62-.61,3.75,3.75,0,0,1,0-2.15,12.26,12.26,0,0,1,1.08-3.07,3.37,3.37,0,0,1,1.68-1.84,2.69,2.69,0,0,0,1.08-1.07,3.18,3.18,0,0,0,.46-1.69,11.51,11.51,0,0,1,.15-1.84,2.33,2.33,0,0,1,.46-1.22,2.08,2.08,0,0,0,.92-1.39,4.48,4.48,0,0,0,0-2.3C262.29,192.37,263.41,189.82,265.67,186.54Zm7.05,84.67q.93,21.8,7.67,21.78,2.76-.3,8.59-5.06a110.28,110.28,0,0,0,11.81-11.35,73.9,73.9,0,0,0,9.36-12.42q3.06-5.82,6.13-13a72.11,72.11,0,0,0,4-11.2,37,37,0,0,1,.77-4,5.59,5.59,0,0,1,1.07-2.46,45.85,45.85,0,0,0,2.46-8.9,84.91,84.91,0,0,0,1.53-11.35c.2-2,.41-3.73.61-5.06a5.81,5.81,0,0,1,.62-2.3,20.12,20.12,0,0,0,.15-4.91,80,80,0,0,0-.77-8.28,40.93,40.93,0,0,0-1.22-6.14q-2.46-6.12-11.05-7c-1.22-.2-2.6-.41-4.14-.61a34.14,34.14,0,0,1-3.53-.62,4.78,4.78,0,0,0-2.76.15,3.65,3.65,0,0,0-1.53,1.69A22.49,22.49,0,0,1,301.1,183q-1.08,2-2.3,4.14c-.82,1.43-1.54,2.71-2.15,3.83a19.28,19.28,0,0,0-1.23,2.61c-.2.41-.46,1-.76,1.69a12.2,12.2,0,0,1-1.08,2,54.94,54.94,0,0,0-3.06,6.9q-1.84,4.77-3.69,9.67t-2.76,7.36q-.61,1.84-1.38,4.75A36.68,36.68,0,0,1,281,231c-.62,1.64-1.23,3.58-1.85,5.83s-1.12,4.4-1.53,6.44c-.41,1.64-.87,3.27-1.38,4.91s-.87,2.76-1.07,3.37Q272.42,258,272.72,271.21Zm.62-104.91q-.63,2.14.92.3c1.63-1.22,1.84-1.84.61-1.84a1.29,1.29,0,0,0-.77.46A4.2,4.2,0,0,0,273.34,166.3Zm46,102.15a14.56,14.56,0,0,0,1.84-2.14c.41-.62.51-1,.31-1.23a1.84,1.84,0,0,1-1.23-1.23c-.2-.2-.87.36-2,1.69s-2.51,3.12-4.14,5.37Q303.7,287.17,293,295.14c-1.23.82-2.25,1.54-3.07,2.15s-1.23,1-1.23,1.23.31.26.93.15a15.77,15.77,0,0,1,2.45-.15q5.52-1.53,15-13.81a24.05,24.05,0,0,1,3.38-3.83,14.67,14.67,0,0,1,3.06-2.3,3.54,3.54,0,0,0,2.46-1.23,3.81,3.81,0,0,0,.3-2.76A7.58,7.58,0,0,1,319.35,268.45Zm4.6-7.36c1.23-2.66,1.33-3.88.31-3.68-.21,0-.57.36-1.07,1.07a16.1,16.1,0,0,0-1.38,2.3,4.61,4.61,0,0,0-.62,1.84c0,.62.16.88.46.77a3,3,0,0,0,1.08-.77A10.35,10.35,0,0,0,324,261.09Zm7.67-18.41a8,8,0,0,0,.77-3.37,1.5,1.5,0,0,0-1.07-1.23c-1-.41-1.69-.15-2,.77a4.24,4.24,0,0,0,.46,3.22,1.79,1.79,0,0,1,.31,1.69,6.06,6.06,0,0,1-1.84,2c-2.66,2.05-2.87,3.07-.61,3.07a2.07,2.07,0,0,0,1.53-.61,3.89,3.89,0,0,0,.92-1.54,10.91,10.91,0,0,0,.92-2.76C331.21,243.5,331.42,243.1,331.62,242.68Z"/><path d="M470.9,264.46q4.91,6.15,2.14,12.58a37,37,0,0,1-3.06,6q-2.46,4.16-5.22,8.44-10.74,16.26-30.37,22.7-8.89,2.76-21.63.46a57.49,57.49,0,0,1-21.93-8.43c-1-.62-2.05-1.18-3.07-1.69l-2.14-1.08c-1,0-2.51-1-4.45-2.91a86.18,86.18,0,0,1-6.14-6.9,43.14,43.14,0,0,1-5.06-7.67,123.4,123.4,0,0,1-5.52-15,82.53,82.53,0,0,1-3.68-16.26,153.38,153.38,0,0,1,5.83-47.55.27.27,0,0,1,.3-.31v-.61A148.71,148.71,0,0,1,384.23,177a162.73,162.73,0,0,1,23.17-25.46q16.25-13.8,29.45-12.58c3.68,0,6.33.42,8,1.23a18.92,18.92,0,0,1,5.52,4.91,35.21,35.21,0,0,1,4,5.68,33,33,0,0,1,2.76,6,16.14,16.14,0,0,0,2.76,5.21c.82.82,2.25,1.23,4.3,1.23Q473,163.84,477,174q3.38,9.51-4,8.89a13.66,13.66,0,0,0-2.91.31,4,4,0,0,0-2,.92c-.42,1-1.34,1.13-2.76.31a11.58,11.58,0,0,0-3.38-2q-2.46-1.07-5.52-2.3a41.91,41.91,0,0,0-4.91-1.22,7.17,7.17,0,0,0-3.83.46,25.23,25.23,0,0,0-5.07,2.91,43.36,43.36,0,0,0-7.66,5.52,61.51,61.51,0,0,0-7.67,8.9q-4.3,5.84-12,16.56a73.55,73.55,0,0,0-10.12,21.48q-5.83,22.39-3.38,36.35t11.05,10a73.06,73.06,0,0,0,18.4-13.19q7.67-7.66,16.57-22.4,10.74-17.17,9.51-7.66c0,1.63-.87,4.19-2.61,7.66s-5.06,9.11-10,16.88q-7.36,12-12.27,17.18a52,52,0,0,1-13.5,9.81c-2.66,1.44-4.14,3.07-4.45,4.91s.77,3.07,3.23,3.68q3.68.63,11.19-6.13a92.61,92.61,0,0,0,14.27-16.57q14.1-20.85,16.56-19.94,1.84.31,5.37,3.22A31.47,31.47,0,0,1,470.9,264.46Zm-74.55-81.9a91.34,91.34,0,0,1,33.44-23.93q4.9-1.84,6.9-2.76c1.33-.62,2-1.12,2-1.54s-.42-.81-1.23-1.22l-.31-.31a6,6,0,0,0-2.76-.77c-1.23-.1-2.45-.15-3.68-.15a27.8,27.8,0,0,0-6,2.91q-3.84,2.31-8.13,5.37-5.22,4.31-11.2,10.13t-10.12,10.58c-2.76,3.17-4,5.17-3.84,6,.2.21.77-.1,1.69-.92A35.1,35.1,0,0,0,396.35,182.56Z"/><path d="M603.73,152.8c3.88.41,6.7.72,8.44.92s2.8.57,3.22,1.07a3.71,3.71,0,0,1,.61,2.3c-.21.82-.46,1.85-.77,3.07s-.56,2.25-.76,3.07c-.42.82-.82,1.59-1.23,2.3a7.59,7.59,0,0,1-.92,1.38c-.21.21-.61.72-1.23,1.53s-1.22,1.75-1.84,2.77-1.69,2.56-3.22,4.6-3.12,4-4.75,5.83q-2.46,3.06-4.45,5.36a37.45,37.45,0,0,0-2.61,3.23q-8.28,10.13-17.79,20.24t-15,14.42a26.48,26.48,0,0,0-7.21,9.2,29.72,29.72,0,0,0-3.22,12c0,1.84,0,3.53.15,5.06s.35,2.41.77,2.61a3.6,3.6,0,0,1,.61,1.38,9.77,9.77,0,0,1,.31,2.61,12.22,12.22,0,0,0,.3,2.6,4,4,0,0,0,.92,2,12.72,12.72,0,0,1,1.69,3.83,72.23,72.23,0,0,1,2,7.52q1.23,4.29,2.15,8a18.12,18.12,0,0,0,1.54,4.61c.4.82,1,2.25,1.84,4.29,1,2,2,4.19,3.06,6.44q1.53,3.69,2.46,6.6t.3,4.14a8.84,8.84,0,0,1-4.29,5.06,14.23,14.23,0,0,1-7.36,2,14.47,14.47,0,0,1-4-.46,8.53,8.53,0,0,1-3.22-2c-1.13-1-2.71-2.55-4.76-4.6q-3.06-2.76-5.52-5.22a29.09,29.09,0,0,1-3.07-3.37q-1.53-1.85-4.75-6.75t-6.29-9.82c-2-3.26-3.37-5.52-4-6.74q-2.15-5.22-6.44-2.46c-.82.41-1.53,2.46-2.15,6.14s-1,10.43-1.22,20.24c0,2.26-.82,3.58-2.46,4q-3.68,1.23-6.44,11a3.84,3.84,0,0,1-1.23,1.68,5.71,5.71,0,0,1-1.84,1.08,7.15,7.15,0,0,0-2,.46,9.3,9.3,0,0,0-2.3,1.07q-2.76,2.15-4.76,2a2,2,0,0,1-2-2.3c0-1.84-.72-2.65-2.15-2.45a2.64,2.64,0,0,1-2.3-1.07,10.59,10.59,0,0,1-1.23-4.15q-.45-3.06-1.07-9.81c-.21-4.3-.51-8.79-.92-13.5-.21-2.46-.41-4.6-.62-6.44a6.68,6.68,0,0,0-.15-1.54,4.15,4.15,0,0,1-.15-.92v-2.76a22.92,22.92,0,0,0,.3-4.6q1.23-11.65,4-33.59t6.14-44q3.38-22.09,5.83-34.36c.2-1,.4-2.35.61-4,.61-2.86,1.28-6.18,2-10s1.38-7.41,2-10.89q1.22-6.13,3.83-18.71t5.68-26.38q3.06-13.81,5.52-23.78t3.07-11.2a4.94,4.94,0,0,0,.92-2.6,27.85,27.85,0,0,0,.3-4.15,16.4,16.4,0,0,1,.47-5.06c.3-.71,1.17-1.17,2.6-1.38q6.45-.91,6.44,4.6a2.45,2.45,0,0,0,1.39,2.3,19.2,19.2,0,0,0,5.82,1.38c3,.42,7.41.82,13.35,1.23,1.84.21,3.53.46,5.06.77a6.37,6.37,0,0,1,2.91,1.07c.21.41,0,2-.61,4.6s-1.64,6.14-3.07,10.43c-1.22,3.89-2.2,7.32-2.91,10.28A44,44,0,0,0,551,83.16a4.43,4.43,0,0,1,.15,2,7.78,7.78,0,0,1-.77,2.3,31.8,31.8,0,0,0-1.23,4q-.61,2.46-1.53,7.37-.32,3.68-2.3,14.72T541,137.77q-2.29,13.18-4,23t-2,11q-.62.92-1.68,6.29T531,190.38q-1.21,6.9-2.45,12.73c-.21,1.84-.36,3.48-.46,4.91s-.05,2.25.15,2.45q1.23.32,10.89-10.43t23.47-27.91q4.61-5.83,8.29-11,7.67-11.34,11.65-12.58l4,.93c.82,0,1.33.25,1.53.76a3.7,3.7,0,0,1,.31,1.38,2.13,2.13,0,0,0,.15.92c.11.21.36.21.77,0a23.73,23.73,0,0,1,5.06-.3A80.73,80.73,0,0,1,603.73,152.8Zm-108.6,131a72.22,72.22,0,0,0,3.68-29.45v-4.6c0-.61-.1-.82-.3-.61a5,5,0,0,0-.77,1.22,6.38,6.38,0,0,0-.61,2,12,12,0,0,0-.16,1.38v5.83a48.08,48.08,0,0,1-2.14,20.86,7.53,7.53,0,0,1-.31,1.38,7.11,7.11,0,0,0-.31,2c0,.61.05,1,.16,1.07S494.72,284.61,495.13,283.79Zm5.52-51.54a1,1,0,0,0,.93-.46,2.52,2.52,0,0,0,.3-1.38,5.16,5.16,0,0,0-.3-1.53c-.21,0-.42.15-.62.46a11.33,11.33,0,0,0-.61,1.07,2.34,2.34,0,0,0-.16,1.38C500.29,232.1,500.45,232.25,500.65,232.25Zm17.49-103.68q.3-2.46-.15-2.61c-.31-.1-.67.66-1.08,2.3q-4.29,16.88-8.89,33.44-2.76,9.2-5.22,18.4c-.41,1.84-.41,2.82,0,2.92s.82-.77,1.23-2.61q2.45-9.21,5.21-18.41Q513.84,145.44,518.14,128.57Zm-6.44,71.17a60.93,60.93,0,0,0,3.07-17.18c0-.62-.06-.92-.16-.92s-.36.2-.76.61a4.74,4.74,0,0,0-.77,2.15,16.06,16.06,0,0,0-.15,2.14,43.06,43.06,0,0,1-2.15,11.36,5.3,5.3,0,0,1-.31,1.22,5.58,5.58,0,0,0-.31,1.69,1.5,1.5,0,0,0,.31,1.07.49.49,0,0,0,.46-.3,8.12,8.12,0,0,0,.31-.77,1.87,1.87,0,0,1,.46-.77Zm1.53-67.8q-.3,0-.3-1.38c0-.92,0-2,.15-3.22a23,23,0,0,1,.46-3.22c.2-.92.41-1.38.61-1.38s.36.46.46,1.38a12.13,12.13,0,0,1-.15,3.22c-.21,1.23-.41,2.3-.61,3.22S513.43,131.94,513.23,131.94Zm3.07-5.83c.2-.61.41-1.27.61-2a7.51,7.51,0,0,0,.31-2c0-.61-.11-.92-.31-.92s-.46.31-.76.92a6.39,6.39,0,0,0-.62,2,22.09,22.09,0,0,0-.15,2.91C515.79,127,516.09,126.72,516.3,126.11Zm4,31.29A35.5,35.5,0,0,0,524,139c0-.61-.11-.92-.31-.92s-.41.21-.61.62a6.66,6.66,0,0,0-.92,2.15,8.68,8.68,0,0,0-.31,2.14v1.54a15.65,15.65,0,0,1,.15,3.83,7.82,7.82,0,0,1-1.07,3.53,17.46,17.46,0,0,0-1.23,4.29v1.08c0,.3.05.46.16.46S520.08,157.61,520.29,157.4Zm62,4.6q3.06-4.91,1.84-4.91c-.21,0-.67.46-1.38,1.39s-1.49,2-2.3,3.22a29.5,29.5,0,0,1-3.38,4.6q-2.14,2.46-3.68,4.29a101.13,101.13,0,0,0-7.36,8.29,91.27,91.27,0,0,0-5.83,8,67.36,67.36,0,0,1-4.91,6.29l-8.9,10.58Q516,239,522.74,234.09c.41-.4,1.08-1,2-1.84a15.76,15.76,0,0,0,2.6-3.06c.82-1,1.89-2.25,3.22-3.69s2.61-2.76,3.84-4c1-1.23,2-2.35,2.91-3.38a24,24,0,0,0,2-2.45c.41-.41,1.17-1.33,2.3-2.76a50.38,50.38,0,0,1,4.14-4.6q2.44-2.46,6-6.6t6.6-8.13q3.06-4,5.52-6.9c1.63-1.94,2.66-3.12,3.07-3.53a23.77,23.77,0,0,0,3.68-4.45c1.84-2.55,3.83-5.37,6-8.43S580.62,164.46,582.26,162Zm-38,130.38c.2.41.3.51.3.31a7.17,7.17,0,0,0-.3-1.38c-.21-.72-.42-1.38-.62-2a3.28,3.28,0,0,0-.61-1.22,112.16,112.16,0,0,1-6.14-10.74A55,55,0,0,0,524,259.56c-.21-.2-.31-.26-.31-.16V260a1.58,1.58,0,0,0,.16.76,2.22,2.22,0,0,1,.15.92,8.52,8.52,0,0,0,2.15,3.38,49.84,49.84,0,0,1,12,16.87A85.77,85.77,0,0,0,544.22,292.38Zm-13.2-173a15.18,15.18,0,0,0-2.14,10.74c0,.41,0,.61.15.61s.2-.1.31-.31l.46-.91c.2-.62.41-1.33.61-2.15a9.33,9.33,0,0,0,.31-2.15,1.28,1.28,0,0,0-.31-.92,13.29,13.29,0,0,0,1.23-3.68v-1.23c0-.2,0-.31-.15-.31S531.23,119.16,531,119.36Zm0-30.06a5.25,5.25,0,0,1-.3,1.23,12.67,12.67,0,0,0-.46,1.68,2.06,2.06,0,0,0,.15,1.38c.2.21.36.26.46.16a3.42,3.42,0,0,0,.46-.77v-.31a83.79,83.79,0,0,0,5.83-18.4,4.33,4.33,0,0,1,.15-.92,4.7,4.7,0,0,0,.16-1.08c0-.3-.21-.35-.62-.15-.2,0-.36.2-.46.61s-.26.92-.46,1.54a5.1,5.1,0,0,0-.3,1.22,74.57,74.57,0,0,1-4.3,13.5Z"/><path d="M751,276.12a7.39,7.39,0,0,0-2,3.53,3.94,3.94,0,0,0,1.07,2.91c2,2.26,2.61,4.45,1.69,6.6s-3.74,4.75-8.44,7.82Q728,308,718.77,311.4t-24.54,4q-35.6,1.53-60.44-12.89-19.63-12.57-27.91-39.11T604.65,208q17.18-59.82,69.64-69,22.08-3.68,28.53,12.58a38.58,38.58,0,0,0,3.22,6.29c1.12,1.74,1.89,2.61,2.3,2.61.81,0,2.3,1,4.45,3.07a56.41,56.41,0,0,1,6.29,7.21,52.05,52.05,0,0,1,4.6,7.2,20.56,20.56,0,0,1,.92,11.66l-1.23,4.91c-.41,1.64-.72,3-.92,4q0,1.23-2.76,5.67a117.33,117.33,0,0,1-7.06,10,93.7,93.7,0,0,1-19.32,18.72q-12,8.9-21.48,12a16.18,16.18,0,0,0-4.29,2,12,12,0,0,0-3.07,2.61q-1.85,3.39-8.28.92-20.57-8.28-8.59,18.41Q657.41,289,672.45,289q12,0,28.53-8a109.37,109.37,0,0,0,30.67-22.39q7.07-7.37,8.9-8.29t1.84,3.38a1.22,1.22,0,0,1-.31.92l-.92.92a8.44,8.44,0,0,0-3.22,2.76c-1.12,1.43-1.79,3.89-2,7.36-.21,1-.46,2.05-.77,3.07a13.84,13.84,0,0,1-1.38,3.07,13,13,0,0,0-.92,2.3c-.21.72,0,1.07.46,1.07a9.39,9.39,0,0,0,2.92-.92A92.9,92.9,0,0,1,749,269.37q5.35-1.53,5.36.92a5.16,5.16,0,0,1-.92,2.46A26.94,26.94,0,0,1,751,276.12ZM690.55,173.05a4.63,4.63,0,0,0-2.15-1.23,10.66,10.66,0,0,0-5.52.92,66.39,66.39,0,0,0-11,4.6A55.19,55.19,0,0,0,655,195.44a.88.88,0,0,1-.31.61.92.92,0,0,0-.3.62,38,38,0,0,0-7.06,14.42,15.48,15.48,0,0,0,.31,5.36c.41,1.74,1.73,2.82,4,3.23a14.87,14.87,0,0,0,6.13-.77,19.71,19.71,0,0,0,5.52-2.61,39.51,39.51,0,0,0,11.66-11.66c0-.2.1-.3.31-.3a140.15,140.15,0,0,0,9.51-14.73,3.73,3.73,0,0,0,.61-.92,47.3,47.3,0,0,0,3.68-8,13.6,13.6,0,0,0,1.23-3.38,2.77,2.77,0,0,0,.31-1.23,3.34,3.34,0,0,0,.61-1.84A1.8,1.8,0,0,0,690.55,173.05ZM648.83,229.8c1.22.41,3.22,0,6-1.07a51.76,51.76,0,0,0,7.82-4c2.45-1.54,3.68-2.81,3.68-3.84a5.15,5.15,0,0,0-.15-1.22c-.11-.41-.26-.62-.46-.62a11.82,11.82,0,0,0-4.3,1.54,64.05,64.05,0,0,0-6.13,3.52,49.88,49.88,0,0,0-5.06,3.69C648.87,228.93,648.41,229.6,648.83,229.8Zm33.74-78.53a18.56,18.56,0,0,0-5.52-.62,56.51,56.51,0,0,0-8,.62,59.19,59.19,0,0,0-7.67,2.14q-1.53,2.76.16,3.68a9.09,9.09,0,0,0,5.06.62q5.82-1.53,12.27-2.76c3.07-.82,4.85-1.43,5.37-1.84S684.2,152.09,682.57,151.27Z"/><path d="M714.47,121.82q-4.9,1.23-7.05-.62t.61-4.91a2.71,2.71,0,0,1,1.23-1.07,8.23,8.23,0,0,1,2.91-.61c1.34-.1,3.28-.16,5.83-.16s6-.1,10.28-.3q13.19,0,24.39-.77a140,140,0,0,0,15.8-1.69c1.42-.2,2.55-1.43,3.37-3.68q.61-1.53,1.84-5.52c.82-2.66,1.53-5.52,2.15-8.59s1.12-5.62,1.53-7.67c.2-.81.41-1.79.62-2.91s.4-2.1.61-2.92.35-1.53.46-2.15A9.57,9.57,0,0,0,779.2,77c-.2-.2-.26-1-.15-2.46a40.36,40.36,0,0,1,.77-5.21,22.36,22.36,0,0,1,1.07-6,9.1,9.1,0,0,1,2-3.23q4.9-5.2,6.75,2.46a14.51,14.51,0,0,0,1.54,4,6.28,6.28,0,0,0,3.06,2.45,13.21,13.21,0,0,0,2.61,1.53c.92.42,1.58.72,2,.93a6.77,6.77,0,0,1,1.68.3,10,10,0,0,1,1.69.62,10.33,10.33,0,0,0,5.22,1.07,5.16,5.16,0,0,0,4-1.69c.41-.61.82-.92,1.23-.92a7.13,7.13,0,0,1,2.15.62,5.28,5.28,0,0,1,2.91,3.83,8.73,8.73,0,0,1-.15,5.37,6.66,6.66,0,0,0-.92,2.15,8.74,8.74,0,0,0-.31,2.14,22.52,22.52,0,0,1-.3,3.22,16.77,16.77,0,0,1-.92,3.53q-4.3,14.43-3.69,15.65c.21,0,1.38-.05,3.53-.16s4.76-.3,7.82-.61l9-.92a66.07,66.07,0,0,0,7.21-1.07c1.43-.2,3.53-.62,6.29-1.23s5.68-1.12,8.75-1.53q4.29-.93,7.66-1.39a12.88,12.88,0,0,1,4.3-.15c.61.21.87.46.77.77a6.13,6.13,0,0,1-1.69,1.69,22.46,22.46,0,0,1-2.92,1.53,35.9,35.9,0,0,1-3.83,1.53,205.9,205.9,0,0,1-22.7,5.53q-12.89,2.46-18.71,2.45c-5.12.21-7.67,1-7.67,2.45,0,1.23,1,1.74,3.06,1.54.21-.2,1.49-.36,3.84-.46s5.16-.26,8.44-.46a79.74,79.74,0,0,0,10.58-.77q5.67-.77,9.66-1.38,6.75-1.53,10.59-2.3a52.59,52.59,0,0,1,5.82-.92,6.73,6.73,0,0,1,3.07.31,10.75,10.75,0,0,1,2.3,1.38,11,11,0,0,1,2.15,1.38c.61.51.92.87.92,1.07a4.69,4.69,0,0,0,.92,1.23,10.24,10.24,0,0,1,1.23,1.53L874,120l-4,1.84q-15.35,6.44-41.72,9.2-8,.61-20.56,2.76a7,7,0,0,0-3.37,1.07,4.14,4.14,0,0,0-1.23,2.61c-.2.82-.36,1.53-.46,2.15s0,1,.15,1.23a15.64,15.64,0,0,1-.46,2.14c-.3,1.23-.66,2.66-1.07,4.3-.82,2.66-1.53,4.81-2.15,6.44a20,20,0,0,0-1.38,3.53,32,32,0,0,0-.76,3.83c-.21,1-.42,2-.62,2.92a12.35,12.35,0,0,0-.3,1.68,9.74,9.74,0,0,0-.92,2.92c-.42,1.74-.77,3.68-1.08,5.83s-.56,3.94-.77,5.37a7.4,7.4,0,0,1-.3,2,8.19,8.19,0,0,0-.31,2.3,18.41,18.41,0,0,0-.61,2.91c-.21,1.34-.41,2.61-.62,3.84a60.92,60.92,0,0,1-.46,6.29q-.45,4.14-1.07,8.43a284.71,284.71,0,0,0-1.84,38.35q.3,20.55,2.45,28.22c.2.82.46,1.95.77,3.38s.56,3,.77,4.6c.2,1.43.4,2.76.61,4a10.17,10.17,0,0,0,.61,2.45,1.45,1.45,0,0,1,.77,1.08,14.41,14.41,0,0,0,.46,1.68,14.84,14.84,0,0,0,.31,2.3,16.43,16.43,0,0,0,.92,3.23q.62,1.53,1.53,4.44c.62,2,1.12,3.84,1.54,5.68q1.53,4.6,2.76,8a13.12,13.12,0,0,0,2.14,4.3,5.08,5.08,0,0,1,.77,1.38c.31.71.66,1.58,1.08,2.61q2.45,7,11.65,20.86a43.18,43.18,0,0,1,3.22,5.37c.51,1.12.56,1.88.16,2.3-.21.61-.46.92-.77.92a3,3,0,0,1-1.38-.62A13.37,13.37,0,0,1,816,347.6q-4-3.68-4-2.45a2.78,2.78,0,0,0,.3,1.22,2,2,0,0,0,.92.92,9.55,9.55,0,0,1,2.31,2.92,55.14,55.14,0,0,1,2.6,4.91,10.72,10.72,0,0,1,1.23,3.52q-.32,2.76-5.21,2.92a33.74,33.74,0,0,1-10.9-1.69,18.6,18.6,0,0,1-9-5.52c-.82-.82-1.74-1.84-2.76-3.07s-1.84-2.25-2.45-3.07-1.69-2.35-3.22-4.6-3-4.6-4.45-7.05q-2.46-3.69-4.45-6.75t-2.61-4.3c-.61-.82-1.07-1.48-1.38-2a2.75,2.75,0,0,1-.46-1.08c-1.22-2.86-2.25-5.21-3.06-7.05q-13.51-29.14-16.57-56.45a195.79,195.79,0,0,1-1.38-23.16q-.16-14,.46-21.93c.2-2,.41-4.35.61-6.91s.31-4.75.31-6.59c.2-1.84.46-3.88.77-6.14s.56-4.08.76-5.52.41-3.22.62-5.37.41-4.14.61-6q.3-3.06.77-6.59c.31-2.35.66-4.45,1.07-6.29q.93-5.22,1.69-7.83c.51-1.73.87-3.06,1.07-4a4,4,0,0,1,.92-2,3.66,3.66,0,0,1,.31-1.38,15.73,15.73,0,0,0,.61-2,41.87,41.87,0,0,0,.92-4.76,27.34,27.34,0,0,0,.31-3.22l-.31-2.45-16,.3q-7.05.32-10.58.16a48.23,48.23,0,0,1-5.37-.46,9.47,9.47,0,0,1-3.37-1.23,9.37,9.37,0,0,0-2.61-1.38,7.12,7.12,0,0,0-2-.46,3.74,3.74,0,0,1-1.38-.31c-.5-.2-1-.4-1.38-.61s-1.12-.51-2.14-.92-2.15-.92-3.38-1.54Q709,128,712,125.8a15.92,15.92,0,0,1,4-.46q3.38-.15,8.28-.15,4.61,0,8.44-.15a24.14,24.14,0,0,0,4.75-.46l2.3-.77c.92-.31,1.79-.56,2.61-.77.61-.2,1.17-.4,1.69-.61s.76-.41.76-.61c0-.41-1.33-.67-4-.77s-5.83-.15-9.51-.15-7.11,0-10.28.15A26.48,26.48,0,0,0,714.47,121.82Zm36.2-.92c-.82.41-.41.61,1.23.61,1.43,0,1.94-.2,1.53-.61h-2.76Zm7.37-.62q-1.23,1.55,4.6,1.54c4.09.2,6.13-.51,6.13-2.15,0-.82-1.74-1-5.21-.62-1.44.21-2.72.42-3.84.62S758,120.08,758,120.28ZM772.45,147l1.54-.92a71,71,0,0,0,1.07-7.06c.1-1.42,0-2.24-.31-2.45s-.76-.1-1.38.31c-.61.2-1.17.41-1.68.61a3.38,3.38,0,0,0-1.08.61l-.3-.3c0-.2-.06-.31-.16-.31a.43.43,0,0,0-.3.15,1.59,1.59,0,0,0-.31.62c-.11.3-.26.87-.46,1.69s-.51,1.89-.92,3.22-.82,3-1.23,4.9-.92,4.25-1.53,6.91q-.93,4.29-1.54,8.43c-.41,2.76-.71,4.86-.92,6.29a27.23,27.23,0,0,1-.46,4.76c-.3,1.74-.56,3.22-.76,4.45s-.36,2.35-.46,3.37-.16,1.64-.16,1.84c.2.21.26.87.16,2s-.26,2.41-.46,3.84a112.4,112.4,0,0,0-1.69,14.57q-.47,8.13-.46,23.47.3,38,4.29,42c.41.41.67.3.77-.31a12.17,12.17,0,0,0-.46-3.68c-.21-1.43-.36-3.17-.46-5.22s-.15-3.88-.15-5.52c-.21-1.43-.36-2.76-.46-4s-.36-1.94-.77-2.14c-.61-.41-.51-.62.31-.62.61,0,.81-1.43.61-4.29,0-1.23,0-2.4.15-3.53a4.16,4.16,0,0,1,.46-2c.62-.82.41-1.74-.61-2.76a3.91,3.91,0,0,1-.92-4,41.39,41.39,0,0,0,1.07-6.6c.1-1.73-.05-2.71-.46-2.91q-1.23-.62.62-3.38,2.15-2.76,1.22-4.29c-.61-1.43-.82-3.73-.61-6.91a29.63,29.63,0,0,1,1.53-8.12,8.37,8.37,0,0,0,.77-3.07c.1-1.23.15-2.25.15-3.07a5.44,5.44,0,0,1-.15-2.15,2.33,2.33,0,0,1,.46-1.22c.62-.62.72-1.74.31-3.38a7,7,0,0,1,.31-4.6,4.79,4.79,0,0,0,.76-2,4.43,4.43,0,0,0-.15-2,7.24,7.24,0,0,1,.15-1.38,5.59,5.59,0,0,1,.46-1.38,8,8,0,0,0,.46-2.45c.1-1.23.16-2.56.16-4a19.1,19.1,0,0,1,1.22-8.9,10.77,10.77,0,0,0,.92-2.61,13.18,13.18,0,0,0,.31-1.68,2.31,2.31,0,0,1,0-1.69,6.93,6.93,0,0,1,.92-2,12.08,12.08,0,0,0,.77-2.61A7.83,7.83,0,0,0,772.45,147Zm-7.67,133.14a2.74,2.74,0,0,0,1.08-2.15,8.84,8.84,0,0,0-.31-3.22,5.88,5.88,0,0,0-1.38-2.61c-1.23-1-1.53-.81-.92.62a6.39,6.39,0,0,1,.46,2,27.14,27.14,0,0,1,.15,2.92C763.86,279.5,764.17,280.32,764.78,280.11Zm2.46-69c.61.41.92.36.92-.16a3.74,3.74,0,0,0-.92-2c-.61-1.23-.92-1.23-.92,0a3.31,3.31,0,0,0,.31,1.53C766.83,210.89,767,211.09,767.24,211.09Zm1.84,83.44c.2.82.31.61.31-.62a2.2,2.2,0,0,0-.16-.92q-.15-.3-.15,0c-.21,0-.31.21-.31.62A1.22,1.22,0,0,0,769.08,294.53Zm7.06-134.37c.4,0,.66-.1.76-.3a1.43,1.43,0,0,0,.16-.62,1.19,1.19,0,0,0-.16-.76c-.1-.11-.36-.16-.76-.16a1.27,1.27,0,0,0-.62.16c-.2.1-.31.35-.31.76a.92.92,0,0,0,.31.62A.89.89,0,0,0,776.14,160.16Zm1.84-42a3,3,0,0,0-2.15.62,1.26,1.26,0,0,0-.46,1.23c.1.41.56.61,1.38.61,2,0,3.07-.72,3.07-2.15,0-.2-.21-.35-.62-.46A1.74,1.74,0,0,0,778,118.13Zm1.84-13.8a6.64,6.64,0,0,0-1.23,2.61,11.15,11.15,0,0,0-.31,2.45c0,.72.2,1.08.62,1.08s1-.41,1.84-1.23,1.58-1.64,2.3-2.46a10.23,10.23,0,0,0,1.38-1.84,1.52,1.52,0,0,0-.31-.76,5.17,5.17,0,0,0-.61-.77c-.82-.61-.82-2.56,0-5.83a10,10,0,0,0,.46-4.91c-.31-1-.77-.92-1.38.31a4.41,4.41,0,0,0-.92,2.3c-.21,1.13-.42,2.3-.62,3.53-.2,1.43-.41,2.66-.61,3.68A4.57,4.57,0,0,1,779.82,104.33Zm0,141.42c.2.82.3.61.3-.61v-.92a.27.27,0,0,0-.3-.31,1,1,0,0,0-.31.77A2.39,2.39,0,0,0,779.82,245.75Zm7-37.42a2.18,2.18,0,0,0,.46-1.08,3.2,3.2,0,0,0,0-1.38c-.1-.41-.26-.61-.46-.61a4.33,4.33,0,0,0-.92.15,2.79,2.79,0,0,0-1.23.77c-.61.2-.92.46-.92.76s.31.57.92.77a1.78,1.78,0,0,0,1.23.62Zm-1.53,26.38a1,1,0,0,0-.31.76,2.42,2.42,0,0,0,.31,1.08c.2.82.31.61.31-.61V235A.27.27,0,0,0,785.34,234.71Zm.31,20.55a1.42,1.42,0,0,0,.15-1.07c-.11-.31-.26-.36-.46-.16a1,1,0,0,0-.31.77,2.35,2.35,0,0,0,.31,1.07C785.54,256.49,785.65,256.29,785.65,255.26Zm2.45,19.94a2.58,2.58,0,0,1-.15.77,1.33,1.33,0,0,0,.15,1.07c.41.62.61.41.61-.61a2.16,2.16,0,0,0-.15-.92A.51.51,0,0,0,788.1,275.2Zm1.23-87.43a.71.71,0,0,0-.77.46,4.45,4.45,0,0,0-.15,1.38c0,1,0,1.54.15,1.54s.35-.41.77-1.23a2.78,2.78,0,0,0,.3-1.23,3.4,3.4,0,0,1,.62-.92Zm.92,117.8a1,1,0,0,0-.31.77,2.35,2.35,0,0,0,.31,1.07c.2.62.3.41.3-.61S790.45,305.37,790.25,305.57Zm4,9.82c-.82.82-.41,1.13,1.23.92,1.64,0,1.94-.41.92-1.23-.41-.41-.76-.56-1.07-.46A3.12,3.12,0,0,0,794.23,315.39Zm3.07,6.44a.87.87,0,0,0-.3-.61.9.9,0,0,0-.62-.31c-.41,0-.66.1-.76.31a1.24,1.24,0,0,0-.16.61,1.1,1.1,0,0,0,.92.92.9.9,0,0,0,.62-.31A.88.88,0,0,0,797.3,321.83Zm1.84-1.53a1.37,1.37,0,0,0-.61.15.48.48,0,0,0-.31.46,1.1,1.1,0,0,0,.92.92,2.31,2.31,0,0,0,.92-.31.88.88,0,0,0-.3-.61Z"/></g></g></g></svg>